<svg width="29" height="29" viewBox="0 0 29 29" fill="none" xmlns="http://www.w3.org/2000/svg">
<circle cx="14.5" cy="14.5" r="14" stroke="white"/>
<path d="M21.0002 10.1552C21.0002 9.01013 19.9899 7.99977 18.8448 7.99977H10.1557C9.01057 7.99977 8.00021 9.01013 8.00021 10.1552V18.8443C8.00021 19.9894 9.01057 20.9998 10.1557 20.9998H14.5339V16.0827H12.9173V13.9272H14.5339V13.0516C14.5339 11.5697 15.6116 10.2899 16.9588 10.2899H18.7101V12.4454H16.9588C16.7567 12.4454 16.5546 12.6474 16.5546 13.0516V13.9272H18.7101V16.0827H16.5546V20.9998H18.8448C19.9899 20.9998 21.0002 19.9894 21.0002 18.8443V10.1552Z" fill="white"/>
</svg>
