<svg width="33" height="33" viewBox="0 0 33 33" fill="none" xmlns="http://www.w3.org/2000/svg">
<ellipse cx="16.6401" cy="16.0787" rx="16.0796" ry="16.0787" fill="#4E6297"/>
<path d="M23.8759 11.1093C23.8759 9.90545 22.8137 8.84326 21.6098 8.84326H12.4744C11.2705 8.84326 10.2083 9.90545 10.2083 11.1093V20.2441C10.2083 21.4479 11.2705 22.5101 12.4744 22.5101H17.0775V17.3408H15.3779V15.0748H17.0775V14.1542C17.0775 12.5963 18.2106 11.2509 19.6269 11.2509H21.4682V13.5169H19.6269C19.4145 13.5169 19.202 13.7293 19.202 14.1542V15.0748H21.4682V17.3408H19.202V22.5101H21.6098C22.8137 22.5101 23.8759 21.4479 23.8759 20.2441V11.1093Z" fill="white"/>
</svg>
