<svg width="114" height="29" viewBox="0 0 114 29" fill="none" xmlns="http://www.w3.org/2000/svg">
<path d="M14.13 14.12C14.13 14.12 13.02 10.67 14.07 8.48C14.13 8.18 13.98 8.15 13.83 8.27C12.12 9.38 7.05 7.61 3.6 9.74C1.47 11.06 0.12 13.43 0.12 15.71C0.12 19.43 2.28 22.04 5.43 22.73C8.43 23.39 9.63 22.22 10.98 21.92C12.33 21.59 12.9 22.04 13.44 22.52C13.44 22.52 13.56 22.67 13.65 22.67C13.8 22.64 13.8 22.52 13.8 22.52V19.22C13.8 18.35 14.22 16.16 12.99 16.28H8.34C8.34 16.28 8.13 16.28 8.13 16.46C8.16 16.64 8.34 16.64 8.34 16.64C9.24 16.67 9.9 16.91 10.32 17.42C10.98 18.26 10.98 20.18 10.56 20.9C9.66 22.49 6.99 22.76 5.67 22.04C3.9 21.08 3.72 18.44 3.72 15.89C3.72 13.88 3.87 11.93 4.65 10.61C5.94 8.42 11.13 8.54 12.57 11.06C13.08 11.9 13.44 12.95 13.77 14.12C13.77 14.12 13.83 14.33 13.98 14.33C14.19 14.3 14.13 14.12 14.13 14.12ZM34.3298 22.67C32.6498 22.67 33.4298 18.23 33.1898 15.11C33.0998 14 32.8298 13.1 31.9898 12.53C31.1198 11.93 28.2698 11.42 26.7998 13.55C26.1998 12.29 24.8798 11.93 23.4998 12.02C22.2398 12.11 21.3698 12.59 20.4998 13.88C20.4998 13.73 20.4998 13.58 20.4998 13.4C20.4998 12.29 21.3398 12.29 21.3398 12.29C21.3398 12.29 21.4598 12.29 21.4598 12.11C21.4598 11.96 21.3398 11.93 21.3398 11.93C18.4598 11.81 17.9198 13.19 17.8898 15.71C17.8598 16.31 17.9498 19.76 17.9498 21.26C17.9498 22.4 17.4998 22.67 16.3898 22.67C16.3898 22.67 16.2098 22.67 16.2098 22.82C16.2098 23.03 16.3898 23.03 16.3898 23.03H21.9998C22.2698 23 22.2698 22.67 21.9998 22.67C20.8898 22.67 20.4698 22.4 20.4698 21.26C20.4698 17.27 20.4398 16.46 20.4698 14.75C21.0098 13.55 22.1498 12.35 23.4098 12.65C24.4898 12.89 24.6398 14.12 24.6698 15.23C24.6698 16.34 24.6398 20.48 24.6398 21.26C24.6398 22.4 24.2198 22.67 23.0798 22.67C23.0798 22.67 22.9298 22.67 22.9298 22.82C22.9298 23.03 23.0798 23.03 23.0798 23.03H28.6898C28.9598 23 28.9598 22.67 28.6898 22.67C27.5798 22.67 27.1598 22.4 27.1598 21.26C27.1598 20.3 27.2498 16.46 27.1298 15.11C27.0998 14.75 27.0698 14.36 26.9498 14C27.9098 12.38 29.7398 12.2 30.3398 13.28C30.6098 13.76 30.6998 14.3 30.7298 15.23C30.7298 21.65 29.9198 23 34.3298 23C34.3298 23 34.4498 23 34.4498 22.85C34.4498 22.67 34.3298 22.67 34.3298 22.67Z" fill="white"/>
<path d="M43.0964 13.152C43.0964 13.152 42.6154 11.657 43.0704 10.708C43.0964 10.578 43.0314 10.565 42.9664 10.617C42.2254 11.098 40.0284 10.331 38.5334 11.254C37.6104 11.826 37.0254 12.853 37.0254 13.841C37.0254 15.453 37.9614 16.584 39.3264 16.883C40.6264 17.169 41.1464 16.662 41.7314 16.532C42.3164 16.389 42.5634 16.584 42.7974 16.792C42.7974 16.792 42.8494 16.857 42.8884 16.857C42.9534 16.844 42.9534 16.792 42.9534 16.792V15.362C42.9534 14.985 43.1354 14.036 42.6024 14.088H40.5874C40.5874 14.088 40.4964 14.088 40.4964 14.166C40.5094 14.244 40.5874 14.244 40.5874 14.244C40.9774 14.257 41.2634 14.361 41.4454 14.582C41.7314 14.946 41.7314 15.778 41.5494 16.09C41.1594 16.779 40.0024 16.896 39.4304 16.584C38.6634 16.168 38.5854 15.024 38.5854 13.919C38.5854 13.048 38.6504 12.203 38.9884 11.631C39.5474 10.682 41.7964 10.734 42.4204 11.826C42.6414 12.19 42.7974 12.645 42.9404 13.152C42.9404 13.152 42.9664 13.243 43.0314 13.243C43.1224 13.23 43.0964 13.152 43.0964 13.152ZM48.4584 16.883C47.6134 16.883 47.8084 15.336 47.7954 13.815C47.7954 12.762 47.1584 12.216 46.0404 12.216C45.6244 12.216 45.1954 12.32 44.8834 12.489C44.5454 12.684 44.3504 12.944 44.3504 13.217C44.3504 13.763 45.1434 14.114 45.1174 13.919C45.0784 13.503 44.9744 12.372 45.8454 12.372C46.6254 12.372 46.6384 13.009 46.6384 13.49C46.6514 13.867 45.8714 14.166 45.2084 14.725C44.3114 15.518 44.3504 16.09 44.4544 16.363C44.5194 16.558 44.6754 16.727 44.8834 16.844C45.5594 17.208 46.2614 16.922 46.7294 16.454C47.1194 16.961 47.8214 17.026 48.4584 17.026C48.4584 17.026 48.5234 17.026 48.5104 16.948C48.5104 16.883 48.4584 16.883 48.4584 16.883ZM46.1444 16.571C45.8844 16.571 45.6504 16.402 45.4944 16.116C45.3774 15.882 45.2344 15.388 45.5204 14.894C45.6764 14.621 46.0924 14.283 46.4694 14.023C46.5344 13.984 46.5864 13.945 46.6514 13.906C46.6514 13.906 46.6514 14.023 46.6514 14.179V15.934C46.6514 16.337 46.5344 16.571 46.1444 16.571ZM57.1812 16.857C56.4532 16.857 56.7912 14.933 56.6872 13.581C56.6482 13.1 56.5312 12.71 56.1672 12.463C55.7902 12.203 54.5552 11.982 53.9182 12.905C53.6582 12.359 53.0862 12.203 52.4882 12.242C51.9422 12.281 51.5652 12.489 51.1882 13.048C51.1882 12.983 51.1882 12.918 51.1882 12.84C51.1882 12.359 51.5522 12.359 51.5522 12.359C51.5522 12.359 51.6042 12.359 51.6042 12.281C51.6042 12.216 51.5522 12.203 51.5522 12.203C50.3042 12.151 50.0702 12.749 50.0572 13.841C50.0442 14.101 50.0832 15.596 50.0832 16.246C50.0832 16.74 49.8882 16.857 49.4072 16.857C49.4072 16.857 49.3292 16.857 49.3292 16.922C49.3292 17.013 49.4072 17.013 49.4072 17.013H51.8382C51.9552 17 51.9552 16.857 51.8382 16.857C51.3572 16.857 51.1752 16.74 51.1752 16.246C51.1752 14.517 51.1622 14.166 51.1752 13.425C51.4092 12.905 51.9032 12.385 52.4492 12.515C52.9172 12.619 52.9822 13.152 52.9952 13.633C52.9952 14.114 52.9822 15.908 52.9822 16.246C52.9822 16.74 52.8002 16.857 52.3062 16.857C52.3062 16.857 52.2412 16.857 52.2412 16.922C52.2412 17.013 52.3062 17.013 52.3062 17.013H54.7372C54.8542 17 54.8542 16.857 54.7372 16.857C54.2562 16.857 54.0742 16.74 54.0742 16.246C54.0742 15.83 54.1132 14.166 54.0612 13.581C54.0482 13.425 54.0352 13.256 53.9832 13.1C54.3992 12.398 55.1922 12.32 55.4522 12.788C55.5692 12.996 55.6082 13.23 55.6212 13.633C55.6212 16.415 55.2702 17 57.1812 17C57.1812 17 57.2332 17 57.2332 16.935C57.2332 16.857 57.1812 16.857 57.1812 16.857ZM66.0039 16.857C65.2759 16.857 65.6139 14.933 65.5099 13.581C65.4709 13.1 65.3539 12.71 64.9899 12.463C64.6129 12.203 63.3779 11.982 62.7409 12.905C62.4809 12.359 61.9089 12.203 61.3109 12.242C60.7649 12.281 60.3879 12.489 60.0109 13.048C60.0109 12.983 60.0109 12.918 60.0109 12.84C60.0109 12.359 60.3749 12.359 60.3749 12.359C60.3749 12.359 60.4269 12.359 60.4269 12.281C60.4269 12.216 60.3749 12.203 60.3749 12.203C59.1269 12.151 58.8929 12.749 58.8799 13.841C58.8669 14.101 58.9059 15.596 58.9059 16.246C58.9059 16.74 58.7109 16.857 58.2299 16.857C58.2299 16.857 58.1519 16.857 58.1519 16.922C58.1519 17.013 58.2299 17.013 58.2299 17.013H60.6609C60.7779 17 60.7779 16.857 60.6609 16.857C60.1799 16.857 59.9979 16.74 59.9979 16.246C59.9979 14.517 59.9849 14.166 59.9979 13.425C60.2319 12.905 60.7259 12.385 61.2719 12.515C61.7399 12.619 61.8049 13.152 61.8179 13.633C61.8179 14.114 61.8049 15.908 61.8049 16.246C61.8049 16.74 61.6229 16.857 61.1289 16.857C61.1289 16.857 61.0639 16.857 61.0639 16.922C61.0639 17.013 61.1289 17.013 61.1289 17.013H63.5599C63.6769 17 63.6769 16.857 63.5599 16.857C63.0789 16.857 62.8969 16.74 62.8969 16.246C62.8969 15.83 62.9359 14.166 62.8839 13.581C62.8709 13.425 62.8579 13.256 62.8059 13.1C63.2219 12.398 64.0149 12.32 64.2749 12.788C64.3919 12.996 64.4309 13.23 64.4439 13.633C64.4439 16.415 64.0929 17 66.0039 17C66.0039 17 66.0559 17 66.0559 16.935C66.0559 16.857 66.0039 16.857 66.0039 16.857ZM71.0164 16.883C70.1714 16.883 70.3664 15.336 70.3534 13.815C70.3534 12.762 69.7164 12.216 68.5984 12.216C68.1824 12.216 67.7534 12.32 67.4414 12.489C67.1034 12.684 66.9084 12.944 66.9084 13.217C66.9084 13.763 67.7014 14.114 67.6754 13.919C67.6364 13.503 67.5324 12.372 68.4034 12.372C69.1834 12.372 69.1964 13.009 69.1964 13.49C69.2094 13.867 68.4294 14.166 67.7664 14.725C66.8694 15.518 66.9084 16.09 67.0124 16.363C67.0774 16.558 67.2334 16.727 67.4414 16.844C68.1174 17.208 68.8194 16.922 69.2874 16.454C69.6774 16.961 70.3794 17.026 71.0164 17.026C71.0164 17.026 71.0814 17.026 71.0684 16.948C71.0684 16.883 71.0164 16.883 71.0164 16.883ZM68.7024 16.571C68.4424 16.571 68.2084 16.402 68.0524 16.116C67.9354 15.882 67.7924 15.388 68.0784 14.894C68.2344 14.621 68.6504 14.283 69.0274 14.023C69.0924 13.984 69.1444 13.945 69.2094 13.906C69.2094 13.906 69.2094 14.023 69.2094 14.179V15.934C69.2094 16.337 69.0924 16.571 68.7024 16.571Z" fill="white"/>
<path d="M44.0969 18.3521H42.6539C42.6539 18.3521 42.6019 18.3521 42.6019 18.4301C42.6019 18.5081 42.6539 18.4951 42.6539 18.4951H42.8359C42.9139 18.4951 42.9919 18.5341 43.0439 18.6121C43.0959 18.6901 43.1089 18.7811 43.0829 18.8591C43.0829 18.8591 42.2249 21.3031 42.1469 21.5501C42.0299 21.9011 41.8999 21.8881 41.8089 21.6151C41.7179 21.3551 41.4579 20.6661 41.4579 20.6661C41.4579 20.6531 40.7949 18.8331 40.7949 18.7811C40.7949 18.5341 41.0289 18.4821 41.2759 18.4821C41.2759 18.4821 41.3409 18.4821 41.3409 18.4171C41.3539 18.3521 41.2759 18.3391 41.2759 18.3391C41.0809 18.3391 40.8469 18.3391 40.6389 18.3391C39.5859 18.3391 39.6249 18.7421 40.0149 19.7821C40.0539 19.8861 40.1059 20.2891 40.0279 20.4711C39.8459 20.9781 39.6899 21.4461 39.6509 21.5501C39.5339 21.9011 39.4169 21.8881 39.3129 21.6151C39.2219 21.3551 38.9749 20.6661 38.9749 20.6661C38.9619 20.6531 38.2989 18.8331 38.2989 18.7811C38.2989 18.5341 38.5329 18.4821 38.7799 18.4821C38.7799 18.4821 38.8449 18.4821 38.8579 18.4171C38.8579 18.3521 38.7799 18.3391 38.7799 18.3391C38.5849 18.3391 38.3639 18.3391 38.1559 18.3391C36.7389 18.3391 37.2719 19.0541 37.9999 21.0171L38.8059 22.9931C38.9099 23.2141 39.1569 23.2141 39.2869 22.9931C39.6509 21.9661 39.5079 22.3821 40.1319 20.6011C40.1579 20.5101 40.3139 20.5231 40.3529 20.6401C40.4049 20.7571 40.4439 20.8871 40.4959 21.0171L41.3019 22.9931C41.4059 23.2141 41.6529 23.2141 41.7829 22.9931C42.2249 21.7321 41.8999 22.6421 43.1869 19.0021C43.2909 18.6901 43.5639 18.4951 43.8889 18.4951H44.0969C44.0969 18.4951 44.1619 18.4821 44.1619 18.4171C44.1619 18.3651 44.0969 18.3521 44.0969 18.3521ZM48.388 21.9141C47.92 23.2921 46.217 23.4351 45.931 21.7841C45.931 21.7841 45.983 21.0561 46.672 20.7311C47.14 20.5101 47.699 20.5491 48.206 20.5491C48.583 20.5491 48.635 20.3411 48.635 20.1331C48.635 19.6001 48.427 19.1711 48.141 18.8721C47.829 18.5211 47.361 18.3651 46.867 18.3651C45.775 18.3651 44.579 19.1971 44.631 20.8091C44.631 22.2131 45.476 23.0841 46.659 23.1751C47.127 23.2141 47.595 23.1101 47.946 22.8371C48.232 22.6161 48.427 22.3041 48.544 21.9661C48.544 21.9661 48.531 21.9011 48.479 21.8881C48.427 21.8621 48.388 21.9141 48.388 21.9141ZM46.243 19.0801C46.659 18.3781 47.127 18.4171 47.465 18.8461C47.699 19.1451 47.816 19.6001 47.777 20.0941C47.751 20.5881 47.283 20.2371 46.581 20.6011C46.36 20.7051 46.178 20.8741 46.035 21.0691C45.983 21.1601 45.866 20.9911 45.879 20.7701C45.905 20.1851 46.009 19.4831 46.243 19.0801ZM53.7776 20.7571C53.7776 19.4311 53.2966 18.3261 51.9836 18.3261C51.3596 18.3261 50.9046 18.9761 50.8136 19.1711C50.8136 18.8331 50.8266 17.9881 50.8266 17.8321C50.8266 17.3511 51.1906 17.3511 51.1906 17.3511C51.1906 17.3511 51.2426 17.3511 51.2426 17.2731C51.2426 17.2081 51.1906 17.1951 51.1906 17.1951C51.1906 17.1951 49.6826 17.1301 49.7216 18.3391C49.7216 19.2621 49.7216 20.8091 49.7216 21.3291C49.7216 22.6941 50.6836 23.2011 51.6326 23.1881C52.2176 23.1881 52.7896 22.9671 53.1406 22.6421C53.5566 22.2261 53.7776 21.5891 53.7776 20.7571ZM52.4516 20.7181C52.4516 22.3561 52.3476 23.0061 51.6196 23.0061C51.2166 22.9931 50.8136 22.5511 50.8006 21.1731C50.7616 20.3801 50.8266 19.6651 50.8266 19.6521C50.9306 19.0671 51.6976 18.2481 52.1396 18.7161C52.5166 19.0671 52.4516 19.9771 52.4516 20.7181ZM54.8425 19.3921V19.7821H59.1975V19.3921H54.8425ZM63.5346 21.9531C63.5346 21.6151 63.4176 21.3291 63.1706 21.0561C62.9236 20.7831 62.5596 20.5491 62.0526 20.2241C60.6616 19.3531 61.2206 18.5731 61.6626 18.5211C62.1696 18.4561 62.8976 18.9761 63.1576 19.8601C63.1576 19.8601 63.1706 19.9121 63.2096 19.9121C63.2616 19.9121 63.2486 19.8601 63.2486 19.8601C63.2486 19.8601 62.9756 19.0151 63.2356 18.4821C63.2486 18.4041 63.2096 18.4041 63.1706 18.4301C63.0926 18.4821 62.9756 18.5211 62.8456 18.5341C62.7026 18.5471 62.1436 18.3781 61.5846 18.3651C60.0766 18.3391 59.5696 19.8861 61.3896 21.0431C61.9876 21.4201 62.4816 21.6541 62.4816 22.1741C62.4816 22.8761 61.9876 23.2141 61.2986 22.8501C60.9346 22.6291 60.5966 22.2261 60.4406 21.6801C60.4406 21.6801 60.4276 21.6281 60.3886 21.6281C60.3366 21.6411 60.3496 21.6801 60.3496 21.6801C60.3496 21.6801 60.6226 22.5251 60.3756 23.0581C60.3496 23.1361 60.3886 23.1361 60.4276 23.1231C60.5056 23.0581 60.6226 23.0321 60.7526 23.0061C60.8306 23.0061 61.0126 23.0451 61.2466 23.0841C62.9886 23.3961 63.5346 22.5901 63.5346 21.9531ZM66.3362 22.7851C66.3102 22.7591 66.2582 22.7851 66.2582 22.7851C66.1282 22.8761 66.0502 22.9151 65.9982 22.9151C65.9072 22.9151 65.8812 22.7461 65.8812 22.4341C65.8812 22.4341 65.8812 19.8471 65.8812 19.6651C65.8812 19.5481 65.9462 19.5091 66.1022 19.5091C66.1542 19.5091 66.3102 19.5091 66.3102 19.5091C66.3102 19.5091 66.3752 19.5091 66.3752 19.4441C66.3752 19.3791 66.3102 19.3661 66.3102 19.3661H65.8812V19.1451C65.8812 18.8591 65.8942 18.6381 65.8942 18.5731C65.8942 18.0921 66.2582 18.0921 66.2582 18.0921C66.2582 18.0921 66.3102 18.0791 66.3102 18.0141C66.3102 17.9491 66.2582 17.9361 66.2582 17.9361C66.2582 17.9361 65.2572 17.8841 64.9062 18.5211C64.7502 18.7941 64.7892 19.0541 64.7892 19.3661H64.4122C64.4122 19.3661 64.3602 19.3921 64.3602 19.4441C64.3602 19.5091 64.4122 19.5091 64.4122 19.5091C64.4122 19.5091 64.5552 19.5091 64.6202 19.5091C64.7632 19.5091 64.7762 19.5871 64.7762 19.7171C64.7762 19.7431 64.7762 22.5641 64.8542 22.7461C64.9582 23.0321 65.1922 23.1621 65.5692 23.1621C65.9072 23.1621 66.0892 23.0581 66.3362 22.8761C66.3362 22.8761 66.3882 22.8371 66.3362 22.7851ZM71.6905 23.0451C71.3785 23.0451 71.2745 22.7071 71.2225 22.2131C71.1965 21.7971 71.2225 19.0411 71.2225 19.0281C71.2225 18.5471 71.5995 18.5471 71.5995 18.5471C71.5995 18.5471 71.6515 18.5341 71.6515 18.4691C71.6515 18.4041 71.5995 18.3911 71.5995 18.3911C71.5995 18.3911 70.3255 18.3391 70.1435 19.2491C70.1305 19.3141 70.1175 19.8601 70.1175 20.4971C70.1175 20.9781 70.1175 21.3031 70.1175 21.5501C70.1175 21.8621 69.9745 22.1611 69.7925 22.4861C69.3895 23.1751 68.8695 23.0581 68.7655 22.4601C68.6615 21.8231 68.7135 21.1471 68.7135 20.5491C68.7265 19.8081 68.7265 19.0411 68.7265 19.0281C68.7265 18.5471 69.1035 18.5471 69.1035 18.5471C69.1035 18.5471 69.1555 18.5341 69.1555 18.4691C69.1555 18.4041 69.1035 18.3911 69.1035 18.3911C69.1035 18.3911 67.8295 18.3391 67.6475 19.2491C67.6215 19.3401 67.6215 19.9511 67.6215 20.5751C67.6345 21.3811 67.5045 22.3171 68.0115 22.8501C68.2325 23.0711 68.5315 23.1751 68.9475 23.1751C69.3245 23.1881 69.6495 22.9671 69.8315 22.6811C69.9225 22.5641 69.9875 22.4211 70.0525 22.2911C70.0785 22.2261 70.1435 22.2131 70.1565 22.2781C70.1955 22.5381 70.2865 22.7201 70.4425 22.8501C70.6765 23.0581 71.0665 23.1881 71.6905 23.1881C71.6905 23.1881 71.7425 23.1881 71.7425 23.1231C71.7425 23.0451 71.6905 23.0451 71.6905 23.0451ZM77.1857 23.0321C76.6917 23.0321 76.5357 22.5251 76.4837 21.7971C76.4837 21.3551 76.4837 20.7441 76.4837 19.9771C76.4837 19.9771 76.4967 17.9361 76.4967 17.8321C76.4967 17.3511 76.8607 17.3511 76.8607 17.3511C76.8607 17.3511 76.9127 17.3511 76.9127 17.2731C76.9127 17.2081 76.8607 17.1951 76.8607 17.1951C76.8607 17.1951 75.7947 17.1431 75.4697 17.8581C75.4047 17.9881 75.3917 18.1051 75.3917 18.2481C75.3917 18.2611 75.3917 18.3261 75.3787 18.4301C75.3787 18.4951 75.2877 18.5471 75.2227 18.5211C75.0147 18.3781 74.7807 18.3131 74.4687 18.3131C73.9357 18.3131 73.4547 18.5081 73.1037 18.8591C72.6747 19.3011 72.4407 19.9511 72.4537 20.7441C72.4277 21.4591 72.5707 22.2131 73.0647 22.6811C73.3637 22.9931 73.7797 23.1491 74.2737 23.1491C74.7157 23.1491 75.0407 22.9541 75.2617 22.7591C75.3917 22.6291 75.4957 22.6291 75.5737 22.7331C75.7817 22.9801 76.2237 23.1751 77.1857 23.1751C77.1857 23.1751 77.2377 23.1751 77.2377 23.0971C77.2377 23.0321 77.1857 23.0321 77.1857 23.0321ZM74.1047 22.7461C73.7667 22.3951 73.7667 21.5241 73.7797 20.5101C73.7667 19.5091 73.8187 18.9241 74.0657 18.6641C74.4167 18.3131 75.3787 18.4951 75.3787 19.0541C75.3787 21.5241 75.4047 21.7711 75.4047 22.0831C75.4047 22.3821 75.3007 22.5121 75.1447 22.6681C74.8457 22.8891 74.3777 23.0191 74.1047 22.7461ZM79.6817 17.3771C79.9937 17.3771 80.2667 17.1041 80.2667 16.7791C80.2667 16.4671 79.9937 16.1941 79.6817 16.1941C79.3567 16.1941 79.0837 16.4541 79.0837 16.7791C79.0837 17.1041 79.3567 17.3771 79.6817 17.3771ZM80.6697 23.0191C80.1887 23.0191 80.0067 22.9021 80.0067 22.4081C80.0067 22.4081 79.9937 19.8471 80.0197 19.0021C80.0197 18.5211 80.3837 18.5211 80.3837 18.5211C80.3837 18.5211 80.4357 18.5211 80.4357 18.4431C80.4357 18.3781 80.3837 18.3651 80.3837 18.3651C79.4607 18.3261 79.0967 18.6771 78.9667 19.1971C78.8497 19.6391 78.9147 22.4081 78.9147 22.4081C78.9147 22.9021 78.7197 23.0191 78.2387 23.0191C78.2387 23.0191 78.1737 23.0191 78.1737 23.0841C78.1737 23.1751 78.2387 23.1751 78.2387 23.1751H80.6697C80.7867 23.1621 80.7867 23.0191 80.6697 23.0191ZM85.7297 20.6661C85.7297 17.4031 81.6867 17.5721 81.6347 20.7571C81.5827 23.8511 85.6647 24.0331 85.7297 20.6661ZM81.8037 20.7571C81.7777 19.2621 85.5087 18.9761 85.5347 20.6661C85.5607 22.1611 81.8297 22.6031 81.8037 20.7571Z" fill="white"/>
</svg>
