<svg width="32" height="32" viewBox="0 0 32 32" fill="none" xmlns="http://www.w3.org/2000/svg">
<g clip-path="url(#clip0)">
<path d="M18.0001 0C12.1278 0 7.10765 3.61939 5.02881 8.74585C7.23134 7.03112 9.99254 6.00004 13.0001 6.00004C20.1798 6.00004 26.0001 11.8203 26.0001 19C26.0001 22.0076 24.969 24.7688 23.2543 26.9713C28.3808 24.8925 32.0002 19.8724 32.0002 14.0001C32.0001 6.26792 25.732 0 18.0001 0Z" fill="black"/>
<path d="M12.9999 8C8.09544 8 3.94437 11.2113 2.52515 15.6447C4.09923 14.6113 5.97604 14 7.99986 14C13.5227 14 17.9999 18.4772 17.9999 24C17.9999 26.0237 17.3886 27.9005 16.3552 29.4746C20.7884 28.0553 23.9999 23.9043 23.9999 19C23.9999 12.9248 19.075 8 12.9999 8Z" fill="black"/>
<path d="M13.6573 18.3431C16.7815 21.4673 16.7815 26.5327 13.6573 29.6568C10.5331 32.781 5.46777 32.781 2.34364 29.6568C-0.780562 26.5326 -0.780562 21.4673 2.34364 18.3431C5.46784 15.219 10.5331 15.219 13.6573 18.3431Z" fill="black"/>
</g>
<defs>
<clipPath id="clip0">
<rect width="32" height="32" fill="white"/>
</clipPath>
</defs>
</svg>
