<svg width="32" height="32" viewBox="0 0 32 32" fill="none" xmlns="http://www.w3.org/2000/svg">
<path d="M28.0001 11.9998C25.794 11.9998 24.0001 13.7937 24.0001 15.9997C24.0001 17.1023 23.1027 17.9997 22.0002 17.9997C20.8977 17.9997 20.0003 17.1023 20.0003 15.9997C20.0003 15.3738 20.2991 14.7752 20.8001 14.4001C22.8039 12.8972 24.0002 10.5047 24.0002 7.99987C24.0002 3.5888 20.4114 0 16.0003 0C11.685 0 7.63917 1.69237 4.60799 4.76554C1.57773 7.83773 -0.0579776 11.908 0.00157041 16.2273C0.120732 24.8043 7.19581 31.8793 15.7737 31.9984C15.8499 31.9994 15.926 31.9994 16.0022 31.9994C20.2346 31.9994 24.2159 30.3686 27.2345 27.3921C30.3076 24.3609 32 20.3151 32 15.9997C32 13.7937 30.2061 11.9998 28.0001 11.9998ZM6.00046 15.9997C6.00046 14.8951 6.89584 13.9998 8.00039 13.9998C9.10494 13.9998 10.0003 14.8952 10.0003 15.9997C10.0003 17.1042 9.10494 17.9997 8.00039 17.9997C6.89584 17.9997 6.00046 17.1042 6.00046 15.9997ZM11.7577 23.0706C10.9767 23.8516 9.71038 23.8516 8.92938 23.0706C8.14825 22.2896 8.14825 21.0233 8.92938 20.2422C9.71038 19.4612 10.9767 19.4612 11.7577 20.2422C12.5388 21.0233 12.5388 22.2896 11.7577 23.0706ZM11.7577 11.7572C10.9767 12.5382 9.71038 12.5382 8.92938 11.7572C8.14825 10.9762 8.14825 9.70986 8.92938 8.92886C9.71038 8.14772 10.9767 8.14772 11.7577 8.92886C12.5388 9.70986 12.5388 10.9762 11.7577 11.7572ZM16.0003 25.9995C14.8956 25.9995 14.0003 25.104 14.0003 23.9996C14.0003 22.895 14.8957 21.9997 16.0003 21.9997C17.1048 21.9997 18.0002 22.8951 18.0002 23.9996C18.0003 25.104 17.1049 25.9995 16.0003 25.9995ZM16.0003 9.99987C14.8956 9.99987 14.0003 9.10436 14.0003 7.99993C14.0003 6.89532 14.8957 6 16.0003 6C17.1048 6 18.0002 6.89538 18.0002 7.99993C18.0003 9.10436 17.1049 9.99987 16.0003 9.99987Z" fill="black"/>
</svg>
