<svg width="32" height="32" viewBox="0 0 32 32" fill="none" xmlns="http://www.w3.org/2000/svg">
<g clip-path="url(#clip0)">
<path d="M28 8.00002C28 5.7908 29.7909 4.00001 32 4.00001C29.791 4.00001 28 2.20915 28 0C28 2.20908 26.2092 4.00001 24 4.00001C26.2091 4.00001 28 5.79074 28 8.00002Z" fill="black"/>
<path d="M29 12C29 13.6568 27.6568 15 26 15C27.6569 15 29 16.3431 29 18C29 16.3431 30.3431 15 32 15C30.3431 15 29 13.6569 29 12Z" fill="black"/>
<path d="M14 12C14 8.68624 16.6862 5.99998 20 5.99998C16.6862 5.99998 14 3.31372 14 0C14 3.31372 11.3137 5.99998 8 5.99998C11.3137 5.99998 14 8.6863 14 12Z" fill="black"/>
<path d="M22 6L0 28L4.00001 32L26 10L22 6ZM18.5859 12.4141L21.414 9.58598L22.414 10.586L19.5859 13.4141L18.5859 12.4141Z" fill="black"/>
</g>
<defs>
<clipPath id="clip0">
<rect width="32" height="32" fill="white"/>
</clipPath>
</defs>
</svg>
