<svg width="32" height="32" viewBox="0 0 32 32" fill="none" xmlns="http://www.w3.org/2000/svg">
<path d="M24 24V2C24 0.895508 23.1045 0 22 0H10C9.46973 0 8.96094 0.210938 8.58594 0.585938L2.58594 6.58594C2.21094 6.96094 2 7.46973 2 8V24C2 25.1055 2.89551 26 4 26H22C23.1045 26 24 25.1055 24 24ZM10 6C10 7.10449 9.10461 8 8 8H4L10 2V6Z" fill="black"/>
<path d="M28 6H26V24C26 26.2061 24.2061 28 22 28H8V30C8 31.1055 8.89551 32 10 32H28C29.1045 32 30 31.1055 30 30V8C30 6.89551 29.1045 6 28 6Z" fill="black"/>
</svg>
