<svg width="33" height="33" viewBox="0 0 33 33" fill="none" xmlns="http://www.w3.org/2000/svg">
<ellipse cx="16.3601" cy="16.0787" rx="16.0796" ry="16.0787" fill="url(#paint0_linear)"/>
<path d="M21.6506 9.64746H11.873C10.7691 9.64746 9.92798 10.4885 9.92798 11.5924V21.3694C9.92798 22.4733 10.7691 23.3143 11.873 23.3143H21.6506C22.7546 23.3143 23.5956 22.4733 23.5956 21.3694V11.5924C23.5956 10.4885 22.7546 9.64746 21.6506 9.64746ZM16.7618 20.5809C19.0222 20.5809 20.8621 18.7937 20.8621 16.6386C20.8621 16.2706 20.8095 15.8501 20.7044 15.5347H21.8609V21.1066C21.8609 21.3694 21.6506 21.6322 21.3352 21.6322H12.1884C11.9256 21.6322 11.6627 21.422 11.6627 21.1066V15.4822H12.8718C12.7666 15.8501 12.7141 16.2181 12.7141 16.586C12.6615 18.7937 14.5014 20.5809 16.7618 20.5809ZM16.7618 19.004C15.2899 19.004 14.1334 17.8476 14.1334 16.4283C14.1334 15.0091 15.2899 13.8526 16.7618 13.8526C18.2337 13.8526 19.3902 15.0091 19.3902 16.4283C19.3902 17.9001 18.2337 19.004 16.7618 19.004ZM21.8083 13.3796C21.8083 13.695 21.5455 13.9578 21.2301 13.9578H19.7582C19.4428 13.9578 19.1799 13.695 19.1799 13.3796V11.9603C19.1799 11.6449 19.4428 11.3821 19.7582 11.3821H21.2301C21.5455 11.3821 21.8083 11.6449 21.8083 11.9603V13.3796Z" fill="white"/>
<defs>
<linearGradient id="paint0_linear" x1="7.11436" y1="28.5396" x2="28.4185" y2="6.43022" gradientUnits="userSpaceOnUse">
<stop stop-color="#EEA054"/>
<stop offset="0.502762" stop-color="#D64763"/>
<stop offset="1" stop-color="#B62A99"/>
</linearGradient>
</defs>
</svg>
