<svg width="29" height="29" viewBox="0 0 29 29" fill="none" xmlns="http://www.w3.org/2000/svg">
<circle cx="14.5" cy="14.5" r="14" stroke="white"/>
<path d="M19.1505 8.00006H9.85052C8.80052 8.00006 8.00052 8.80006 8.00052 9.85006V19.1501C8.00052 20.2001 8.80052 21.0001 9.85052 21.0001H19.1505C20.2005 21.0001 21.0005 20.2001 21.0005 19.1501V9.85006C21.0005 8.80006 20.2005 8.00006 19.1505 8.00006ZM14.5005 18.4001C16.6505 18.4001 18.4005 16.7001 18.4005 14.6501C18.4005 14.3001 18.3505 13.9001 18.2505 13.6001H19.3505V18.9001C19.3505 19.1501 19.1505 19.4001 18.8505 19.4001H10.1505C9.90052 19.4001 9.65052 19.2001 9.65052 18.9001V13.5501H10.8005C10.7005 13.9001 10.6505 14.2501 10.6505 14.6001C10.6005 16.7001 12.3505 18.4001 14.5005 18.4001ZM14.5005 16.9001C13.1005 16.9001 12.0005 15.8001 12.0005 14.4501C12.0005 13.1001 13.1005 12.0001 14.5005 12.0001C15.9005 12.0001 17.0005 13.1001 17.0005 14.4501C17.0005 15.8501 15.9005 16.9001 14.5005 16.9001ZM19.3005 11.5501C19.3005 11.8501 19.0505 12.1001 18.7505 12.1001H17.3505C17.0505 12.1001 16.8005 11.8501 16.8005 11.5501V10.2001C16.8005 9.90006 17.0505 9.65006 17.3505 9.65006H18.7505C19.0505 9.65006 19.3005 9.90006 19.3005 10.2001V11.5501Z" fill="white"/>
</svg>
