<svg width="122" height="32" viewBox="0 0 122 32" fill="none" xmlns="http://www.w3.org/2000/svg">
<path d="M54.6169 25C54.3514 25 54.1143 24.9147 53.9058 24.744C53.7161 24.5733 53.5834 24.3553 53.5075 24.0898L47.6764 4.37778C47.5437 3.92266 47.5626 3.54341 47.7333 3.24C47.9229 2.93659 48.2169 2.78489 48.6151 2.78489C48.8426 2.78489 49.0512 2.85126 49.2409 2.984C49.4495 3.09778 49.6012 3.31585 49.696 3.63822L54.6169 20.7902L59.2818 4.12178C59.3386 3.91318 59.4619 3.74252 59.6515 3.60978C59.8601 3.47703 60.0877 3.41066 60.3342 3.41066C60.5618 3.41066 60.7798 3.47703 60.9884 3.60978C61.197 3.72355 61.3298 3.9037 61.3866 4.15022L66.08 20.8187L71.0293 3.52444C71.162 3.0314 71.5223 2.78489 72.1102 2.78489C72.5084 2.78489 72.7834 2.94607 72.9351 3.26844C73.0868 3.57185 73.1058 3.94163 72.992 4.37778L67.1893 24.0613C66.9807 24.6871 66.6015 25 66.0515 25C65.786 25 65.549 24.9147 65.3404 24.744C65.1508 24.5733 65.018 24.3553 64.9422 24.0898L60.3342 7.27911L55.7546 24.0613C55.5271 24.6871 55.1478 25 54.6169 25ZM75.4802 25C75.1768 25 74.9113 24.8957 74.6838 24.6871C74.4752 24.4596 74.3709 24.1941 74.3709 23.8907V3.89422C74.3709 3.57185 74.4752 3.30637 74.6838 3.09777C74.8923 2.88918 75.1578 2.78489 75.4802 2.78489H88.8206C89.143 2.78489 89.4085 2.88918 89.6171 3.09777C89.8257 3.2874 89.93 3.5434 89.93 3.86578C89.93 4.15022 89.8257 4.39674 89.6171 4.60533C89.4085 4.81392 89.143 4.91822 88.8206 4.91822H76.5895V12.7689H85.4926C85.815 12.7689 86.0805 12.8732 86.2891 13.0818C86.4977 13.2904 86.602 13.5464 86.602 13.8498C86.602 14.1532 86.4977 14.4092 86.2891 14.6178C86.0805 14.8264 85.815 14.9307 85.4926 14.9307H76.5895V23.8907C76.5895 24.1941 76.4852 24.4596 76.2766 24.6871C76.068 24.8957 75.8026 25 75.4802 25ZM99.9424 25C99.639 25 99.3735 24.8957 99.146 24.6871C98.9374 24.4596 98.8331 24.1941 98.8331 23.8907V4.80444H92.0918C91.7883 4.80444 91.5418 4.70963 91.3522 4.52C91.1626 4.33037 91.0678 4.09333 91.0678 3.80889C91.0678 3.50548 91.1626 3.25896 91.3522 3.06933C91.5418 2.8797 91.7883 2.78489 92.0918 2.78489H107.822C108.125 2.78489 108.371 2.8797 108.561 3.06933C108.751 3.25896 108.846 3.50548 108.846 3.80889C108.846 4.09333 108.751 4.33037 108.561 4.52C108.371 4.70963 108.125 4.80444 107.822 4.80444H101.052V23.8907C101.052 24.1941 100.947 24.4596 100.739 24.6871C100.53 24.8957 100.265 25 99.9424 25Z" fill="#1DC869"/>
<path fill-rule="evenodd" clip-rule="evenodd" d="M15.832 2.96301H8.58307e-06L6.66609 9.63517H22.498L15.832 2.96301ZM6.66609 9.63517V25.4815L0 18.8094V2.96302L6.66609 9.63517Z" fill="#1DC869"/>
<path fill-rule="evenodd" clip-rule="evenodd" d="M6.66608 25.4814L22.498 25.4814L15.8319 18.8093L-7.62939e-06 18.8093L6.66608 25.4814ZM15.832 18.8093L15.832 2.96292L22.498 9.63508L22.498 25.4814L15.832 18.8093Z" fill="#1DC869"/>
</svg>
