<svg width="29" height="29" viewBox="0 0 29 29" fill="none" xmlns="http://www.w3.org/2000/svg">
<circle cx="14.5" cy="14.5" r="14" stroke="white"/>
<path d="M21.8514 18.0752C21.8514 18.0136 21.7877 18.0136 21.7877 17.9519C21.5331 17.4588 20.9601 16.8423 20.1962 16.1642C19.8143 15.856 19.6233 15.6094 19.4959 15.4862C19.305 15.2396 19.305 15.0547 19.3686 14.8081C19.4323 14.6231 19.6869 14.3149 20.1326 13.7601C20.3872 13.4519 20.5145 13.267 20.7055 13.082C21.6604 11.8492 22.106 11.0478 21.9787 10.6779L21.915 10.6163C21.8514 10.5546 21.7877 10.493 21.6604 10.493C21.5331 10.4314 21.3421 10.4314 21.1511 10.493H18.732C18.6684 10.493 18.6684 10.493 18.541 10.493C18.4774 10.493 18.4137 10.493 18.4137 10.493H18.3501H18.2864L18.2227 10.5546C18.1591 10.6163 18.1591 10.6163 18.1591 10.6779C17.9044 11.356 17.5861 11.9108 17.2678 12.5272C17.0769 12.8355 16.8859 13.1437 16.6949 13.3903C16.5039 13.6368 16.3766 13.8218 16.2493 13.9451C16.122 14.0683 15.9946 14.13 15.931 14.2533C15.8673 14.3149 15.74 14.3766 15.74 14.3149C15.6763 14.3149 15.6127 14.3149 15.6127 14.2533C15.549 14.1916 15.4854 14.13 15.4217 14.0683C15.358 14.0067 15.358 13.8834 15.2944 13.7601C15.2944 13.6368 15.2944 13.5136 15.2944 13.4519C15.2944 13.3903 15.2944 13.2053 15.2944 13.082C15.2944 12.8971 15.2944 12.7738 15.2944 12.7122C15.2944 12.5273 15.2944 12.2807 15.2944 12.0341C15.2944 11.7875 15.2944 11.6026 15.2944 11.4793C15.2944 11.356 15.2944 11.1711 15.2944 11.0478C15.2944 10.8629 15.2944 10.7396 15.2944 10.6779C15.2944 10.6163 15.2307 10.493 15.2307 10.4314C15.1671 10.3697 15.1034 10.3081 15.0397 10.2464C14.9761 10.1848 14.8488 10.1848 14.7851 10.1231C14.4668 10.0615 14.0848 9.99986 13.6392 9.99986C12.6207 9.99986 11.9204 10.0615 11.6658 10.1848C11.5384 10.2464 11.4111 10.3081 11.3475 10.4314C11.2201 10.5546 11.2201 10.6163 11.2838 10.6163C11.6021 10.6779 11.8567 10.8012 11.9841 10.9862L12.0477 11.1094C12.1114 11.1711 12.1114 11.2944 12.175 11.4793C12.2387 11.6642 12.2387 11.8492 12.2387 12.0957C12.2387 12.4656 12.2387 12.8355 12.2387 13.082C12.2387 13.3903 12.175 13.5752 12.175 13.7601C12.175 13.9451 12.1114 14.0683 12.0477 14.13C11.9841 14.2533 11.9841 14.3149 11.9204 14.3149C11.9204 14.3149 11.9204 14.3766 11.8567 14.3766C11.7931 14.3766 11.7294 14.4382 11.6021 14.4382C11.5384 14.4382 11.4111 14.3766 11.3475 14.3149C11.2201 14.2533 11.0928 14.13 11.0292 14.0067C10.9018 13.8834 10.7745 13.6985 10.6472 13.4519C10.5199 13.2053 10.3289 12.9588 10.2016 12.5889L10.0743 12.3423C10.0106 12.219 9.88328 11.9725 9.75595 11.6642C9.62863 11.356 9.50131 11.1094 9.37399 10.8012C9.31033 10.6779 9.24668 10.6163 9.18302 10.5546H9.11935C9.11935 10.5546 9.05569 10.493 8.99203 10.493C8.92836 10.493 8.86471 10.4314 8.80105 10.4314H6.50928C6.25464 10.4314 6.12732 10.493 6.06366 10.5546L6 10.6163C6 10.6163 6 10.6779 6 10.7396C6 10.8012 6 10.8629 6.06366 10.9862C6.38196 11.7259 6.76392 12.4656 7.14588 13.2053C7.52785 13.8834 7.90981 14.4999 8.16445 14.9314C8.48275 15.3629 8.73739 15.7944 9.05569 16.1642C9.37399 16.5341 9.56497 16.7807 9.62863 16.904C9.75595 17.0273 9.8196 17.0889 9.88326 17.1505L10.0743 17.3355C10.2016 17.4588 10.3926 17.6437 10.6472 17.8286C10.9018 18.0136 11.2201 18.1985 11.5384 18.3834C11.8567 18.5683 12.2387 18.6916 12.6207 18.8149C13.0663 18.9382 13.4482 18.9999 13.8302 18.9382H14.7851C14.9761 18.9382 15.1034 18.8766 15.2307 18.7533L15.2944 18.6916C15.2944 18.63 15.358 18.63 15.358 18.5683C15.358 18.5067 15.358 18.4451 15.358 18.3218C15.358 18.0752 15.358 17.8903 15.4217 17.7053C15.4854 17.5204 15.4854 17.3971 15.549 17.2738C15.6127 17.1505 15.6763 17.0889 15.74 17.0273C15.8037 16.9656 15.8673 16.904 15.8673 16.904H15.931C16.0583 16.8423 16.2493 16.904 16.3766 17.0273C16.5676 17.1505 16.7586 17.3355 16.8859 17.5204C17.0132 17.7053 17.2042 17.8903 17.4588 18.1368C17.7135 18.3834 17.9045 18.5684 18.0318 18.63L18.2227 18.7533C18.3501 18.8149 18.4774 18.8766 18.6684 18.9382C18.8594 18.9999 18.9867 18.9999 19.114 18.9999L21.2784 18.9382C21.4694 18.9382 21.6604 18.8766 21.7877 18.8149C21.915 18.7533 21.9787 18.6916 21.9787 18.5683C21.9787 18.5067 21.9787 18.3834 21.9787 18.3218C21.8514 18.1985 21.8514 18.1368 21.8514 18.0752Z" fill="white"/>
</svg>
