<svg width="33" height="33" viewBox="0 0 33 33" fill="none" xmlns="http://www.w3.org/2000/svg">
<ellipse cx="16.9204" cy="16.0787" rx="16.0796" ry="16.0787" fill="#7294C7"/>
<path d="M24.8041 20.1921C24.8041 20.1253 24.7373 20.1253 24.7373 20.0586C24.4703 19.5246 23.8696 18.8572 23.0686 18.123C22.6681 17.7893 22.4679 17.5223 22.3344 17.3888C22.1341 17.1218 22.1341 16.9216 22.2009 16.6546C22.2676 16.4544 22.5346 16.1206 23.0019 15.5199C23.2688 15.1862 23.4023 14.986 23.6026 14.7857C24.6038 13.4508 25.0711 12.5831 24.9376 12.1827L24.8708 12.1159C24.8041 12.0492 24.7373 11.9824 24.6038 11.9824C24.4703 11.9157 24.2701 11.9157 24.0698 11.9824H21.5334C21.4666 11.9824 21.4666 11.9824 21.3331 11.9824C21.2664 11.9824 21.1996 11.9824 21.1996 11.9824H21.1329H21.0661L20.9994 12.0492C20.9326 12.1159 20.9326 12.1159 20.9326 12.1827C20.6656 12.9169 20.3319 13.5176 19.9982 14.185C19.7979 14.5187 19.5977 14.8525 19.3974 15.1195C19.1972 15.3864 19.0637 15.5867 18.9302 15.7202C18.7967 15.8536 18.6632 15.9204 18.5964 16.0539C18.5297 16.1206 18.3962 16.1874 18.3962 16.1206C18.3294 16.1206 18.2627 16.1206 18.2627 16.0539C18.1959 15.9871 18.1292 15.9204 18.0624 15.8536C17.9957 15.7869 17.9957 15.6534 17.9289 15.5199C17.9289 15.3864 17.9289 15.2529 17.9289 15.1862C17.9289 15.1195 17.9289 14.9192 17.9289 14.7857C17.9289 14.5855 17.9289 14.452 17.9289 14.3853C17.9289 14.185 17.9289 13.9181 17.9289 13.6511C17.9289 13.3841 17.9289 13.1839 17.9289 13.0504C17.9289 12.9169 17.9289 12.7166 17.9289 12.5831C17.9289 12.3829 17.9289 12.2494 17.9289 12.1827C17.9289 12.1159 17.8622 11.9824 17.8622 11.9157C17.7954 11.849 17.7287 11.7822 17.6619 11.7155C17.5952 11.6487 17.4617 11.6487 17.3949 11.582C17.0612 11.5152 16.6607 11.4485 16.1935 11.4485C15.1255 11.4485 14.3913 11.5152 14.1243 11.6487C13.9908 11.7155 13.8573 11.7822 13.7905 11.9157C13.657 12.0492 13.657 12.1159 13.7238 12.1159C14.0575 12.1827 14.3245 12.3162 14.458 12.5164L14.5248 12.6499C14.5915 12.7166 14.5915 12.8501 14.6582 13.0504C14.725 13.2506 14.725 13.4508 14.725 13.7178C14.725 14.1183 14.725 14.5188 14.725 14.7857C14.725 15.1195 14.6582 15.3197 14.6582 15.5199C14.6582 15.7202 14.5915 15.8537 14.5248 15.9204C14.458 16.0539 14.458 16.1206 14.3912 16.1206C14.3912 16.1206 14.3912 16.1874 14.3245 16.1874C14.2577 16.1874 14.191 16.2541 14.0575 16.2541C13.9908 16.2541 13.8573 16.1874 13.7905 16.1206C13.657 16.0539 13.5235 15.9204 13.4568 15.7869C13.3233 15.6534 13.1898 15.4532 13.0563 15.1862C12.9228 14.9192 12.7225 14.6522 12.589 14.2518L12.4555 13.9848C12.3888 13.8513 12.2553 13.5843 12.1218 13.2506C11.9883 12.9169 11.8548 12.6499 11.7213 12.3162C11.6545 12.1827 11.5878 12.1159 11.5211 12.0492H11.4543C11.4543 12.0492 11.3875 11.9824 11.3208 11.9824C11.254 11.9824 11.1873 11.9157 11.1206 11.9157H8.71759C8.45059 11.9157 8.3171 11.9824 8.25035 12.0492L8.18359 12.1159C8.18359 12.1159 8.18359 12.1827 8.18359 12.2494C8.18359 12.3162 8.1836 12.3829 8.25035 12.5164C8.58409 13.3173 8.98458 14.1183 9.38508 14.9192C9.78557 15.6534 10.1861 16.3209 10.4531 16.7881C10.7868 17.2553 11.0538 17.7225 11.3875 18.123C11.7213 18.5234 11.9215 18.7904 11.9883 18.9239C12.1218 19.0574 12.1885 19.1241 12.2553 19.1909L12.4555 19.3911C12.589 19.5246 12.7893 19.7249 13.0563 19.9251C13.3233 20.1253 13.657 20.3256 13.9907 20.5258C14.3245 20.726 14.725 20.8595 15.1255 20.993C15.5927 21.1265 15.9932 21.1932 16.3937 21.1265H17.3949C17.5952 21.1265 17.7287 21.0598 17.8622 20.9263L17.9289 20.8595C17.9289 20.7928 17.9957 20.7928 17.9957 20.726C17.9957 20.6593 17.9957 20.5925 17.9957 20.4591C17.9957 20.1921 17.9957 19.9918 18.0624 19.7916C18.1292 19.5914 18.1292 19.4579 18.1959 19.3244C18.2627 19.1909 18.3294 19.1241 18.3962 19.0574C18.4629 18.9907 18.5297 18.9239 18.5297 18.9239H18.5964C18.7299 18.8572 18.9302 18.9239 19.0637 19.0574C19.2639 19.1909 19.4642 19.3911 19.5977 19.5914C19.7312 19.7916 19.9314 19.9918 20.1984 20.2588C20.4654 20.5258 20.6656 20.726 20.7991 20.7928L20.9994 20.9263C21.1329 20.993 21.2664 21.0598 21.4666 21.1265C21.6669 21.1932 21.8004 21.1932 21.9339 21.1932L24.2033 21.1265C24.4036 21.1265 24.6038 21.0598 24.7373 20.993C24.8708 20.9263 24.9376 20.8595 24.9376 20.726C24.9376 20.6593 24.9376 20.5258 24.9376 20.4591C24.8041 20.3256 24.8041 20.2588 24.8041 20.1921Z" fill="white"/>
</svg>
