<svg width="33" height="33" viewBox="0 0 33 33" fill="none" xmlns="http://www.w3.org/2000/svg">
<ellipse cx="16.0796" cy="16.0787" rx="16.0796" ry="16.0787" fill="#48C95F"/>
<path d="M22.4524 9.6974C20.864 8.11465 18.7462 7.23535 16.5108 7.23535C11.8634 7.23535 8.09838 10.987 8.09838 15.618C8.09838 17.0835 8.51017 18.549 9.21611 19.7801L8.03955 24.1179L12.5105 22.9455C13.7458 23.5904 15.0989 23.9421 16.5108 23.9421C21.1581 23.9421 24.9231 20.1904 24.9231 15.5594C24.8643 13.3905 24.0407 11.2801 22.4524 9.6974ZM20.5699 18.6077C20.3934 19.0766 19.5698 19.5456 19.158 19.6042C18.805 19.6628 18.3344 19.6628 17.8638 19.5456C17.5697 19.4283 17.1579 19.3111 16.6872 19.0766C14.5694 18.1973 13.2164 16.087 13.0987 15.9111C12.9811 15.7939 12.2163 14.7973 12.2163 13.7422C12.2163 12.687 12.7458 12.2181 12.9223 11.9836C13.0987 11.7491 13.3341 11.7491 13.5105 11.7491C13.6282 11.7491 13.8047 11.7491 13.9223 11.7491C14.04 11.7491 14.2165 11.6905 14.393 12.1008C14.5694 12.5112 14.9812 13.5663 15.0401 13.6249C15.0989 13.7422 15.0989 13.8594 15.0401 13.9767C14.9812 14.0939 14.9224 14.2111 14.8047 14.3284C14.6871 14.4456 14.5694 14.6215 14.5106 14.6801C14.393 14.7973 14.2753 14.9146 14.393 15.0904C14.5106 15.3249 14.9224 15.9697 15.5695 16.556C16.3931 17.2594 17.0402 17.4939 17.2755 17.6111C17.5108 17.7284 17.6285 17.6697 17.7461 17.5525C17.8638 17.4353 18.2756 16.9663 18.3932 16.7318C18.5109 16.4973 18.6874 16.556 18.8639 16.6146C19.0403 16.6732 20.0993 17.2008 20.2757 17.318C20.511 17.4353 20.6287 17.4939 20.6875 17.5525C20.7464 17.7284 20.7464 18.1387 20.5699 18.6077Z" fill="white"/>
</svg>
