<svg width="29" height="29" viewBox="0 0 29 29" fill="none" xmlns="http://www.w3.org/2000/svg">
<circle cx="14.5" cy="14.5" r="14" stroke="white"/>
<path d="M20.659 9.33333C19.1538 7.83333 17.1468 7 15.0284 7C10.6242 7 7.05624 10.5556 7.05624 14.9444C7.05624 16.3333 7.44648 17.7222 8.11547 18.8889L7.00049 23L11.2374 21.8889C12.4082 22.5 13.6904 22.8333 15.0284 22.8333C19.4325 22.8333 23.0005 19.2778 23.0005 14.8889C22.9447 12.8333 22.1642 10.8333 20.659 9.33333ZM18.8751 17.7778C18.7078 18.2222 17.9273 18.6667 17.5371 18.7222C17.2026 18.7778 16.7566 18.7778 16.3106 18.6667C16.0318 18.5556 15.6416 18.4444 15.1956 18.2222C13.1886 17.3889 11.9064 15.3889 11.7949 15.2222C11.6834 15.1111 10.9587 14.1667 10.9587 13.1667C10.9587 12.1667 11.4604 11.7222 11.6277 11.5C11.7949 11.2778 12.0179 11.2778 12.1852 11.2778C12.2967 11.2778 12.4639 11.2778 12.5754 11.2778C12.6869 11.2778 12.8541 11.2222 13.0214 11.6111C13.1886 12 13.5789 13 13.6346 13.0556C13.6904 13.1667 13.6904 13.2778 13.6346 13.3889C13.5789 13.5 13.5231 13.6111 13.4116 13.7222C13.3001 13.8333 13.1886 14 13.1329 14.0556C13.0214 14.1667 12.9099 14.2778 13.0214 14.4444C13.1329 14.6667 13.5231 15.2778 14.1364 15.8333C14.9169 16.5 15.5301 16.7222 15.7531 16.8333C15.9761 16.9444 16.0876 16.8889 16.1991 16.7778C16.3106 16.6667 16.7008 16.2222 16.8123 16C16.9238 15.7778 17.0911 15.8333 17.2583 15.8889C17.4256 15.9444 18.4291 16.4444 18.5963 16.5556C18.8193 16.6667 18.9308 16.7222 18.9865 16.7778C19.0423 16.9444 19.0423 17.3333 18.8751 17.7778Z" fill="white"/>
</svg>
