<svg width="132" height="57" viewBox="0 0 132 57" fill="none" xmlns="http://www.w3.org/2000/svg">
<path d="M0.684998 57V0.125H17.4819C22.5079 0.125 26.961 1.24479 30.8412 3.48438C34.7475 5.72396 37.7683 8.90104 39.9037 13.0156C42.0392 17.1302 43.1069 21.8438 43.1069 27.1562V30.0078C43.1069 35.3984 42.0261 40.138 39.8647 44.2266C37.7293 48.3151 34.6694 51.4661 30.685 53.6797C26.7267 55.8932 22.1824 57 17.0522 57H0.684998ZM10.5678 8.09375V49.1094H17.0131C22.1954 49.1094 26.1668 47.4948 28.9272 44.2656C31.7136 41.0104 33.1329 36.349 33.185 30.2812V27.1172C33.185 20.9453 31.8439 16.2318 29.1616 12.9766C26.4793 9.72135 22.586 8.09375 17.4819 8.09375H10.5678ZM61.2153 57H51.3716V0.125H61.2153V57ZM71.1987 57V0.125H87.9956C93.0217 0.125 97.4748 1.24479 101.355 3.48438C105.261 5.72396 108.282 8.90104 110.417 13.0156C112.553 17.1302 113.621 21.8438 113.621 27.1562V30.0078C113.621 35.3984 112.54 40.138 110.378 44.2266C108.243 48.3151 105.183 51.4661 101.199 53.6797C97.2404 55.8932 92.6961 57 87.5659 57H71.1987ZM81.0816 8.09375V49.1094H87.5269C92.7092 49.1094 96.6805 47.4948 99.4409 44.2656C102.227 41.0104 103.647 36.349 103.699 30.2812V27.1172C103.699 20.9453 102.358 16.2318 99.6753 12.9766C96.993 9.72135 93.0998 8.09375 87.9956 8.09375H81.0816ZM131.729 57H121.885V0.125H131.729V57Z" fill="white"/>
</svg>
