<svg width="140" height="21" viewBox="0 0 140 21" fill="none" xmlns="http://www.w3.org/2000/svg">
<path d="M16.0702 3.49414H10.0849V20H6.77578V3.49414H0.843163V0.804688H16.0702V3.49414ZM29.1141 15.5308H21.6785L20.1229 20H16.6556L23.9065 0.804688H26.8992L34.1634 20H30.6829L29.1141 15.5308ZM22.6145 12.8413H28.178L25.3963 4.87842L22.6145 12.8413ZM44.3068 7.73926L48.341 0.804688H52.1906L46.3898 10.3232L52.3225 20H48.4333L44.3068 12.96L40.1672 20H36.2912L42.237 10.3232L36.423 0.804688H40.2727L44.3068 7.73926ZM59.6578 20H56.3355V0.804688H59.6578V20ZM76.517 12.8677V20H73.1815V0.804688H80.5248C82.6693 0.804688 84.37 1.36279 85.6269 2.479C86.8925 3.59521 87.5253 5.07178 87.5253 6.90869C87.5253 8.78955 86.9057 10.2529 85.6664 11.2988C84.4359 12.3447 82.7089 12.8677 80.4853 12.8677H76.517ZM76.517 10.1914H80.5248C81.7113 10.1914 82.6166 9.91455 83.2406 9.36084C83.8646 8.79834 84.1767 7.98975 84.1767 6.93506C84.1767 5.89795 83.8603 5.07178 83.2274 4.45654C82.5946 3.83252 81.7245 3.51172 80.6171 3.49414H76.517V10.1914ZM95.1375 17.3369H103.852V20H91.802V0.804688H95.1375V17.3369ZM121.484 0.804688V13.6323C121.484 15.6714 120.829 17.2886 119.519 18.4839C118.218 19.6704 116.483 20.2637 114.312 20.2637C112.114 20.2637 110.37 19.6792 109.078 18.5103C107.786 17.3325 107.14 15.7021 107.14 13.6191V0.804688H110.462V13.6455C110.462 14.9287 110.787 15.9087 111.438 16.5854C112.088 17.2622 113.046 17.6006 114.312 17.6006C116.878 17.6006 118.161 16.2471 118.161 13.54V0.804688H121.484ZM136.439 15.0562C136.439 14.2124 136.14 13.562 135.543 13.105C134.954 12.6479 133.886 12.1865 132.339 11.7207C130.792 11.2549 129.562 10.7363 128.648 10.165C126.899 9.06641 126.024 7.63379 126.024 5.86719C126.024 4.32031 126.652 3.0459 127.909 2.04395C129.175 1.04199 130.814 0.541016 132.827 0.541016C134.163 0.541016 135.354 0.787109 136.4 1.2793C137.445 1.77148 138.267 2.47461 138.865 3.38867C139.462 4.29395 139.761 5.30029 139.761 6.40771H136.439C136.439 5.40576 136.123 4.62354 135.49 4.06104C134.866 3.48975 133.969 3.2041 132.8 3.2041C131.711 3.2041 130.862 3.43701 130.256 3.90283C129.658 4.36865 129.359 5.01904 129.359 5.854C129.359 6.55713 129.685 7.146 130.335 7.62061C130.985 8.08643 132.058 8.54346 133.552 8.9917C135.046 9.43115 136.246 9.93652 137.151 10.5078C138.056 11.0703 138.72 11.7207 139.142 12.459C139.564 13.1885 139.775 14.0454 139.775 15.0298C139.775 16.6294 139.159 17.9038 137.929 18.853C136.707 19.7935 135.046 20.2637 132.945 20.2637C131.557 20.2637 130.278 20.0088 129.109 19.499C127.949 18.9805 127.044 18.2686 126.393 17.3633C125.752 16.458 125.431 15.4033 125.431 14.1992H128.766C128.766 15.2891 129.127 16.1328 129.847 16.7305C130.568 17.3281 131.601 17.627 132.945 17.627C134.106 17.627 134.976 17.394 135.556 16.9282C136.145 16.4536 136.439 15.8296 136.439 15.0562Z" fill="white"/>
</svg>
